HIERARCHY
ROOT Hips
{
	OFFSET 0.000000 0.000000 0.000000
	CHANNELS 6 Xposition Yposition Zposition Yrotation Xrotation Zrotation
	JOINT Chest
	{
		OFFSET 0.000000 -0.009281 11.569106
		CHANNELS 3 Yrotation Xrotation Zrotation
		JOINT Chest2
		{
			OFFSET -0.000000 0.016865 9.269641
			CHANNELS 3 Yrotation Xrotation Zrotation
			JOINT Chest3
			{
				OFFSET -0.000000 0.000001 8.374491
				CHANNELS 3 Yrotation Xrotation Zrotation
				JOINT Chest4
				{
					OFFSET -0.000000 0.000001 8.374493
					CHANNELS 3 Yrotation Xrotation Zrotation
					JOINT Neck
					{
						OFFSET -0.000000 0.000002 12.152554
						CHANNELS 3 Yrotation Xrotation Zrotation
						JOINT Head
						{
							OFFSET -0.000000 0.040101 7.802319
							CHANNELS 3 Yrotation Xrotation Zrotation
							End Site
							{
								OFFSET -0.000000 0.020947 14.853096
							}
						}
					}
					JOINT RightCollar
					{
						OFFSET 2.894404 0.000001 6.791374
						CHANNELS 3 Yrotation Xrotation Zrotation
						JOINT RightShoulder
						{
							OFFSET 13.574684 0.000001 0.000000
							CHANNELS 3 Yrotation Xrotation Zrotation
							JOINT RightElbow
							{
								OFFSET 23.923903 0.000002 0.000000
								CHANNELS 3 Yrotation Xrotation Zrotation
								JOINT RightWrist
								{
									OFFSET 19.846718 0.012767 0.000000
									CHANNELS 3 Yrotation Xrotation Zrotation
									End Site
									{
										OFFSET 14.973145 0.000001 0.000000
									}
								}
							}
						}
					}
					JOINT LeftCollar
					{
						OFFSET -2.894404 0.000001 6.791374
						CHANNELS 3 Yrotation Xrotation Zrotation
						JOINT LeftShoulder
						{
							OFFSET -13.574684 -0.000001 0.000000
							CHANNELS 3 Yrotation Xrotation Zrotation
							JOINT LeftElbow
							{
								OFFSET -23.923903 -0.000002 0.000000
								CHANNELS 3 Yrotation Xrotation Zrotation
								JOINT LeftWrist
								{
									OFFSET -19.846718 0.012763 0.000000
									CHANNELS 3 Yrotation Xrotation Zrotation
									End Site
									{
										OFFSET -14.973145 -0.000001 0.000000
									}
								}
							}
						}
					}
				}
			}
		}
	}
	JOINT RightHip
	{
		OFFSET 9.469263 0.004643 0.045487
		CHANNELS 3 Yrotation Xrotation Zrotation
		JOINT RightKnee
		{
			OFFSET 0.000000 0.002661 -40.478676
			CHANNELS 3 Yrotation Xrotation Zrotation
			JOINT RightAnkle
			{
				OFFSET 0.000000 0.049106 -35.224068
				CHANNELS 3 Yrotation Xrotation Zrotation
				JOINT RightToe
				{
					OFFSET -0.000001 12.539529 -6.151390
					CHANNELS 3 Yrotation Xrotation Zrotation
					End Site
					{
						OFFSET -0.000001 5.044994 -1.291870
					}
				}
			}
		}
	}
	JOINT LeftHip
	{
		OFFSET -9.469263 0.004641 0.045487
		CHANNELS 3 Yrotation Xrotation Zrotation
		JOINT LeftKnee
		{
			OFFSET 0.000000 0.002661 -40.478676
			CHANNELS 3 Yrotation Xrotation Zrotation
			JOINT LeftAnkle
			{
				OFFSET 0.000000 0.049106 -35.224068
				CHANNELS 3 Yrotation Xrotation Zrotation
				JOINT LeftToe
				{
					OFFSET -0.000001 12.539529 -6.151390
					CHANNELS 3 Yrotation Xrotation Zrotation
					End Site
					{
						OFFSET -0.000001 5.044994 -1.291870
					}
				}
			}
		}
	}
}
MOTION
Frames: 11
Frame Time: 0.016667
46.424713 14.544906 80.889915 9.371492 9.529125 -96.421876 8.776381 -10.256666 1.154265 3.905436 -4.645426 0.735060 3.905436 -4.645428 0.735060 2.933074 -3.479548 0.580763 1.394867 -5.769959 -11.185753 -3.252410 24.748050 -21.802205 9.591504 -0.135661 -0.856684 59.674167 -31.075677 -19.265378 -28.777465 -75.995027 101.940430 -32.640436 17.116929 36.104906 -7.726897 0.267600 -6.743686 -61.746618 -20.966637 11.726370 -65.995125 -57.038288 -5.276704 -0.836256 13.313693 -38.891944 -11.074132 37.075175 -4.753230 2.744026 -6.708446 -22.352141 -1.245765 -10.328510 2.207259 -2.196973 1.141475 0.223721 -18.967365 11.476803 5.079105 -4.733874 -3.255685 10.710907 6.748526 1.202058 -1.370492 -0.033495 -0.316460 0.088250 
46.617912 14.507874 80.786629 9.420497 10.010577 -96.533181 8.691464 -10.395397 1.172034 3.873553 -4.696962 0.750516 3.873555 -4.696962 0.750515 2.909322 -3.518142 0.592428 1.297567 -5.589958 -11.088874 -3.436480 25.075426 -21.696699 9.607242 -0.087668 -0.837479 59.913210 -31.117608 -19.319153 -27.962108 -76.135627 100.963535 -32.697465 16.923771 36.430743 -7.740719 0.322077 -6.800966 -61.553487 -20.952415 11.830488 -65.997434 -57.133166 -5.373664 -0.808119 13.470368 -38.811843 -12.405258 37.226710 -6.555271 2.761523 -6.598252 -22.779441 -1.068148 -11.079926 2.378889 -1.933085 1.275038 0.205702 -19.350302 11.516756 4.962717 -4.893223 -3.434545 10.496808 7.001010 1.532378 -0.998167 -0.200429 -0.337640 0.067622 
46.839565 14.470519 80.681396 9.350346 10.461278 -96.722568 8.576440 -10.531288 1.185799 3.835510 -4.737748 0.760707 3.835503 -4.737748 0.760708 2.880901 -3.548709 0.600028 1.183446 -5.447946 -10.983824 -3.641694 25.331317 -21.576460 9.595054 -0.120414 -0.782323 60.195051 -31.254351 -19.306179 -26.264692 -76.385400 99.130108 -32.825985 16.658099 36.775128 -7.767310 0.342106 -6.718751 -61.308441 -20.955012 11.920009 -66.193938 -57.274917 -5.267944 -0.726706 13.641100 -38.810556 -13.806493 37.226266 -8.676086 2.619193 -6.346632 -22.558554 -0.750414 -11.880668 2.286574 -1.661162 1.236854 0.186854 -19.717332 11.461390 4.734692 -5.038680 -3.629447 10.408606 7.291344 1.866587 -0.547197 -0.373288 -0.337396 0.011817 
47.068901 14.442632 80.574738 9.258220 10.908937 -96.931791 8.419938 -10.589093 1.197449 3.780620 -4.765364 0.772872 3.780623 -4.765366 0.772871 2.839872 -3.569417 0.608884 1.075625 -5.333372 -10.885567 -3.831857 25.537022 -21.461084 9.598497 -0.229292 -0.719559 60.486591 -31.424061 -19.207817 -23.646378 -76.702615 96.388483 -32.988065 16.347706 37.164924 -7.744783 0.271115 -6.611319 -61.038778 -20.886795 11.982606 -66.530899 -57.395104 -5.054404 -0.565435 13.672884 -38.789713 -15.275616 37.273360 -10.826090 2.369042 -6.109959 -22.142966 -0.404835 -12.594301 2.083062 -1.341372 1.023876 0.165641 -20.106521 11.417073 4.315585 -5.154804 -3.877685 10.482174 7.574506 2.245304 -0.062424 -0.524971 -0.344952 -0.038176 
47.311172 14.406767 80.467918 9.094266 11.367239 -97.162760 8.218437 -10.605319 1.194641 3.700575 -4.787656 0.783169 3.700574 -4.787658 0.783168 2.779967 -3.586169 0.616110 0.969825 -5.239917 -10.792352 -4.016004 25.703588 -21.350569 9.617186 -0.314412 -0.664991 60.788178 -31.628939 -19.078694 -20.268241 -77.059499 92.887130 -33.191868 15.993168 37.632676 -7.703546 0.201573 -6.461240 -60.789742 -20.818664 12.101182 -66.850237 -57.508868 -4.886796 -0.323431 13.571517 -38.682667 -16.780899 37.326673 -12.959991 2.006144 -5.906498 -21.731282 -0.091623 -13.151024 1.884147 -0.991393 0.650292 0.132881 -20.473533 11.327169 3.900394 -5.305101 -4.195337 10.643763 7.831835 2.689148 0.334467 -0.637086 -0.358574 -0.053789 
47.593185 14.330060 80.363510 8.786674 11.796691 -97.466185 7.979651 -10.644746 1.204719 3.590846 -4.799343 0.787916 3.590846 -4.799348 0.787914 2.697758 -3.595036 0.618874 0.870848 -5.177056 -10.701164 -4.180617 25.814978 -21.234083 9.650508 -0.336499 -0.647682 61.096739 -31.857416 -18.964288 -16.421964 -77.415085 88.936371 -33.428735 15.596303 38.152556 -7.720058 0.244148 -6.377822 -60.517518 -20.713206 12.388836 -67.186822 -57.657943 -4.704773 -0.026234 13.445995 -38.533899 -18.288680 37.241617 -15.122293 1.643090 -5.623442 -21.461865 0.104809 -13.622868 1.835803 -0.667853 0.204711 0.087862 -20.747183 11.104989 3.606387 -5.514646 -4.552407 10.875369 8.035328 3.176439 0.614659 -0.696325 -0.356333 -0.026963 
47.907925 14.197965 80.266167 8.403812 12.198671 -97.792613 7.706823 -10.659369 1.200430 3.466180 -4.799536 0.787454 3.466175 -4.799538 0.787453 2.604309 -3.595333 0.617544 0.771216 -5.135983 -10.613679 -4.343574 25.885749 -21.120842 9.672847 -0.393890 -0.643843 61.347905 -31.997654 -18.784082 -12.114308 -77.707240 84.537654 -33.561497 15.182413 38.733945 -7.786340 0.277587 -6.341974 -60.183440 -20.566337 12.677889 -67.546603 -57.845685 -4.555046 0.325990 13.340977 -38.309288 -19.860872 37.079786 -17.405757 1.363992 -5.281736 -21.448432 0.157551 -14.062625 2.015510 -0.420540 -0.235506 0.040919 -20.941795 10.817883 3.305566 -5.757372 -4.969706 11.203121 8.166380 3.727046 0.843905 -0.716228 -0.357318 0.021068 
48.239525 14.006996 80.178604 7.957590 12.573313 -98.084399 7.385079 -10.628775 1.153502 3.330572 -4.797483 0.786476 3.330571 -4.797484 0.786477 2.502661 -3.593966 0.615734 0.676911 -5.108681 -10.545834 -4.503196 25.929160 -21.041424 9.697530 -0.461781 -0.668069 61.563077 -32.041063 -18.566677 -7.216786 -77.899353 79.556671 -33.588012 14.710195 39.372485 -7.826068 0.259366 -6.287969 -59.843631 -20.447795 12.864041 -67.920166 -58.028433 -4.434892 0.743492 13.214270 -38.027939 -21.478454 36.902634 -19.586940 1.096456 -4.994677 -21.723917 0.207992 -14.490748 2.259139 -0.267492 -0.620110 0.000562 -21.092109 10.481691 2.920321 -5.987379 -5.464013 11.554521 8.224360 4.324914 1.104958 -0.717174 -0.370602 0.079945 
48.607048 13.760589 80.095154 7.373358 12.879440 -98.402358 7.021749 -10.612158 1.110901 3.185050 -4.787012 0.772219 3.185051 -4.787014 0.772218 2.393461 -3.586362 0.603844 0.578900 -5.105391 -10.483197 -4.667508 25.927046 -20.969374 9.733425 -0.574182 -0.651164 61.713723 -31.963827 -18.318371 -1.540199 -77.988282 73.827440 -33.493448 14.197888 40.051048 -7.872518 0.256672 -6.178961 -59.518501 -20.416409 13.003496 -68.286626 -58.159512 -4.339677 1.195576 13.014448 -37.719573 -22.972214 36.636230 -21.607401 0.725165 -4.774826 -21.920338 0.448564 -14.893591 2.386251 -0.232063 -0.958095 -0.027595 -21.209394 10.033001 2.567453 -6.141200 -6.045828 11.890176 8.247127 4.979674 1.450461 -0.747137 -0.392310 0.085670 
49.019089 13.474669 80.016174 6.640751 13.097207 -98.728786 6.614242 -10.579385 1.074372 3.025439 -4.767660 0.749610 3.025440 -4.767660 0.749612 2.273631 -3.572151 0.585549 0.479456 -5.143234 -10.416504 -4.823024 25.849799 -20.881043 9.781351 -0.664631 -0.654482 61.840642 -31.872750 -18.090306 4.685272 -77.932814 67.593799 -33.267273 13.651812 40.749756 -7.929229 0.253385 -6.105605 -59.206197 -20.403911 13.128780 -68.662089 -58.254485 -4.221629 1.687441 12.813063 -37.431028 -24.290009 36.142766 -23.642128 0.286314 -4.498535 -21.786435 0.874156 -15.243220 2.433920 -0.287224 -1.277337 -0.046893 -21.331309 9.447108 2.142294 -6.167059 -6.708236 12.320094 8.249054 5.702820 1.854727 -0.830115 -0.424270 0.039221 
49.480431 13.140341 79.949135 5.746814 13.208386 -99.031172 6.190584 -10.532030 1.021059 2.850798 -4.749920 0.712895 2.850798 -4.749921 0.712895 2.142427 -3.559218 0.556580 0.380356 -5.227199 -10.330890 -4.957073 25.690945 -20.744386 9.830500 -0.743387 -0.702792 61.899573 -31.788196 -17.807259 11.166056 -77.713558 61.126348 -33.002569 13.019695 41.449420 -8.010530 0.240077 -6.060811 -58.909220 -20.419744 13.214212 -69.023761 -58.290788 -4.114490 2.241880 12.560530 -37.169135 -25.406321 35.345635 -25.719511 -0.175792 -4.163300 -21.352872 1.381719 -15.412797 2.439983 -0.346932 -1.627195 -0.071257 -21.409390 8.663583 1.589721 -6.132639 -7.379832 12.886077 8.259977 6.426901 2.266746 -0.960968 -0.434070 -0.014283 
